<svg width="1037" height="400" viewBox="0 0 1037 400" fill="none" xmlns="http://www.w3.org/2000/svg">
<rect width="1037" height="400" fill="white"/>
<path d="M396.81 279C384.91 279 376.58 276.13 371.82 270.39C367.2 264.51 364.89 256.32 364.89 245.82V183.87H352.29C350.61 183.87 349.28 183.45 348.3 182.61C347.32 181.77 346.83 180.58 346.83 179.04C346.83 177.92 347.18 177.08 347.88 176.52C348.72 175.82 350.19 175.05 352.29 174.21C355.09 172.95 357.47 171.69 359.43 170.43C361.39 169.17 363.49 167.35 365.73 164.97C368.67 161.89 371.4 157.97 373.92 153.21C375.32 150.83 376.44 149.22 377.28 148.38C378.26 147.54 379.52 147.12 381.06 147.12C383.44 147.12 384.98 147.96 385.68 149.64C386.38 151.32 386.73 154.33 386.73 158.67V173.58H412.14C413.68 173.58 414.87 174.14 415.71 175.26C416.69 176.24 417.18 177.43 417.18 178.83C417.18 180.23 416.69 181.42 415.71 182.4C414.87 183.38 413.68 183.87 412.14 183.87H386.73V250.65C386.73 257.23 387.92 262.06 390.3 265.14C392.82 268.22 395.83 269.76 399.33 269.76C403.53 269.76 406.75 268.71 408.99 266.61C411.23 264.51 413.4 261.57 415.5 257.79C416.9 255.13 418.16 253.17 419.28 251.91C420.54 250.65 422.08 250.02 423.9 250.02C425.58 250.02 426.91 250.51 427.89 251.49C428.87 252.33 429.36 253.52 429.36 255.06C429.36 256.18 429.01 257.58 428.31 259.26C427.61 260.8 426.91 262.06 426.21 263.04C422.71 268.36 418.37 272.35 413.19 275.01C408.01 277.67 402.55 279 396.81 279ZM516.254 182.61C516.254 188.07 513.524 190.8 508.064 190.8H501.134C490.634 190.8 482.794 193.39 477.614 198.57C472.574 203.75 470.054 209.91 470.054 217.05V264.09C470.054 270.11 469.004 274.1 466.904 276.06C464.944 278.02 461.514 279 456.614 279C453.394 279 451.154 278.23 449.894 276.69C448.774 275.01 448.214 272.49 448.214 269.13V182.61C448.214 179.25 448.914 176.94 450.314 175.68C451.714 174.28 454.024 173.58 457.244 173.58C461.164 173.58 464.174 175.12 466.274 178.2C468.514 181.14 469.634 185.62 469.634 191.64V196.89H470.054C474.114 190.45 478.734 184.99 483.914 180.51C489.094 175.89 495.744 173.58 503.864 173.58H506.384C509.884 173.58 512.334 174.35 513.734 175.89C515.274 177.43 516.114 179.67 516.254 182.61ZM578.106 277.32C572.786 290.9 566.626 302.24 559.626 311.34C552.766 320.58 544.576 325.2 535.056 325.2C532.256 325.2 529.876 324.43 527.916 322.89C525.956 321.49 524.976 319.74 524.976 317.64C524.976 311.34 528.756 308.19 536.316 308.19C544.576 308.19 550.596 305.6 554.376 300.42C557.456 296.08 560.396 289.57 563.196 280.89L521.616 184.08C520.916 182.54 520.566 180.93 520.566 179.25C520.566 175.47 523.156 173.58 528.336 173.58C531.836 173.58 535.056 174.77 537.996 177.15C541.076 179.39 543.596 182.89 545.556 187.65L573.066 256.32H574.116L586.716 219.57C590.076 209.77 592.876 200.53 595.116 191.85L596.586 186.81C597.706 182.75 599.176 179.53 600.996 177.15C602.816 174.77 605.406 173.58 608.766 173.58C610.726 173.58 612.336 174 613.596 174.84C614.856 175.54 615.486 176.73 615.486 178.41C615.486 180.09 615.136 181.98 614.436 184.08L578.106 277.32ZM660.787 192.9C667.927 180.02 678.847 173.58 693.547 173.58C704.327 173.58 713.007 177.01 719.587 183.87C726.167 190.73 729.457 203.12 729.457 221.04C729.457 239.8 725.047 254.15 716.227 264.09C707.407 274.03 695.157 279 679.477 279C669.817 279 660.787 277.39 652.387 274.17C648.047 272.63 644.617 270.53 642.097 267.87C639.717 265.21 638.527 261.22 638.527 255.9V129.27C638.527 125.91 639.087 123.46 640.207 121.92C641.467 120.24 643.707 119.4 646.927 119.4C651.687 119.4 655.117 120.73 657.217 123.39C659.317 126.05 660.367 130.46 660.367 136.62V192.9H660.787ZM660.157 259.47C660.157 262.55 661.837 265.21 665.197 267.45C668.697 269.55 673.457 270.6 679.477 270.6C697.677 270.6 706.777 254.64 706.777 222.72C706.777 209.14 704.887 199.9 701.107 195C697.327 190.1 692.007 187.65 685.147 187.65C681.647 187.65 677.937 188.84 674.017 191.22C670.097 193.46 666.807 196.4 664.147 200.04C661.487 203.68 660.157 207.46 660.157 211.38V259.47ZM780.362 264.72C780.362 270.6 779.382 274.45 777.422 276.27C775.462 278.09 771.962 279 766.922 279C763.702 279 761.462 278.23 760.202 276.69C759.082 275.01 758.522 272.49 758.522 269.13V129.27C758.522 125.91 759.082 123.46 760.202 121.92C761.462 120.24 763.702 119.4 766.922 119.4C771.682 119.4 775.112 120.73 777.212 123.39C779.312 126.05 780.362 130.46 780.362 136.62V264.72ZM889.649 252.54C891.049 251 892.799 250.23 894.899 250.23C896.159 250.23 897.279 250.65 898.259 251.49C899.239 252.33 899.729 253.38 899.729 254.64C899.729 257.16 898.819 259.54 896.999 261.78C887.759 273.26 874.879 279 858.359 279C841.979 279 829.589 274.59 821.189 265.77C812.929 256.81 808.799 244.49 808.799 228.81C808.799 210.89 812.999 197.24 821.399 187.86C829.799 178.34 841.979 173.58 857.939 173.58C870.679 173.58 880.899 177.22 888.599 184.5C896.299 191.78 900.149 202.21 900.149 215.79C900.149 222.65 896.159 226.08 888.179 226.08H831.689C831.549 227.2 831.479 228.74 831.479 230.7C831.479 242.74 833.859 252.26 838.619 259.26C843.379 266.26 850.729 269.76 860.669 269.76C867.389 269.76 872.709 268.36 876.629 265.56C880.549 262.76 883.559 260.1 885.659 257.58C887.759 254.92 889.089 253.24 889.649 252.54ZM856.679 181.98C849.959 181.98 844.429 184.85 840.089 190.59C835.749 196.33 833.159 205.22 832.319 217.26H871.589C874.109 217.26 875.929 216.84 877.049 216C878.169 215.02 878.729 213.41 878.729 211.17C878.729 201.79 876.489 194.58 872.009 189.54C867.669 184.5 862.559 181.98 856.679 181.98Z" fill="#000531"/>
<path d="M298 252.86C298 282.035 274.349 305.686 245.174 305.686C215.998 305.686 192.347 282.035 192.347 252.86C192.347 223.685 215.998 200.034 245.174 200.034C274.349 200.034 298 223.685 298 252.86ZM210.836 252.86C210.836 271.824 226.21 287.197 245.174 287.197C264.138 287.197 279.511 271.824 279.511 252.86C279.511 233.896 264.138 218.523 245.174 218.523C226.21 218.523 210.836 233.896 210.836 252.86Z" fill="#000531"/>
<path fill-rule="evenodd" clip-rule="evenodd" d="M196.272 211.105H139.429C139.429 211.105 128 211.105 128 222.626C128 234.147 139.429 234.147 139.429 234.147H183.118C185.685 225.538 190.233 217.704 196.272 211.105Z" fill="#26BF26"/>
<path fill-rule="evenodd" clip-rule="evenodd" d="M207.899 86C196.378 86 196.378 97.4292 196.378 97.4292V210.983C202.589 203.299 210.47 197.194 219.42 193.309V97.4292C219.42 97.4292 219.42 86 207.899 86Z" fill="#26BF26"/>
</svg>
